<?xml version="1.0" encoding="utf-8"?>
<!DOCTYPE svg PUBLIC "-//W3C//DTD SVG 1.1//EN" "http://www.w3.org/Graphics/SVG/1.1/DTD/svg11.dtd">
<svg version="1.1" xmlns="http://www.w3.org/2000/svg" xmlns:xlink="http://www.w3.org/1999/xlink" x="0px" y="0px" viewBox="16.7 0 134.7 143.9"
	 enable-background="new 16.7 0 134.7 143.9" xml:space="preserve">
<title>Découpe logo</title>
<path fill="#FFFFFF" d="M21,0v127.5L33.5,140L46,127.5L58.4,140l12.5-12.5L83.4,140l12.5-12.5l12.5,12.5l12.5-12.5h0l12.5,12.5
	l12.5-12.5l0-127.5H21z M98.5,20c4.7,0,8.5,3.8,8.5,8.5s-3.8,8.5-8.5,8.5S90,33.2,90,28.5S93.8,20,98.5,20z M69.5,20
	c4.7,0,8.5,3.8,8.5,8.5S74.2,37,69.5,37S61,33.2,61,28.5S64.8,20,69.5,20z M125.4,22.5L112,45.7V79h-2v24.5c0,2.5-2,4.5-4.5,4.5
	c-2.5,0-4.5-2-4.5-4.5V79h-5v24.5c0,2.5-2,4.5-4.5,4.5c-2.5,0-4.5-2-4.5-4.5V79h-2V48h-2v31h-2v24.5c0,2.5-2,4.5-4.5,4.5
	c-2.5,0-4.5-2-4.5-4.5V79h-5v24.5c0,2.5-2,4.5-4.5,4.5c-2.5,0-4.5-2-4.5-4.5V79h-2V45.7L42.6,22.5c-1.1-1.9-0.4-4.4,1.5-5.5
	c1.9-1.1,4.4-0.5,5.5,1.5L61.9,40H83h2h21.1l12.4-21.5c1.1-1.9,3.6-2.6,5.5-1.5C125.9,18.1,126.5,20.6,125.4,22.5z"/>
</svg>
