<?xml version="1.0" encoding="UTF-8" standalone="no"?>
<!-- Created with Inkscape (http://www.inkscape.org/) -->

<svg
   xmlns:dc="http://purl.org/dc/elements/1.1/"
   xmlns:cc="http://creativecommons.org/ns#"
   xmlns:rdf="http://www.w3.org/1999/02/22-rdf-syntax-ns#"
   xmlns:svg="http://www.w3.org/2000/svg"
   xmlns="http://www.w3.org/2000/svg"
   xmlns:sodipodi="http://sodipodi.sourceforge.net/DTD/sodipodi-0.dtd"
   xmlns:inkscape="http://www.inkscape.org/namespaces/inkscape"
   width="145"
   height="145"
   id="svg2"
   version="1.1"
   inkscape:version="0.48.4 r9939"
   sodipodi:docname="logo-noir.svg">
  <defs
     id="defs4" />
  <sodipodi:namedview
     id="base"
     pagecolor="#eaeaea"
     bordercolor="#666666"
     borderopacity="1.0"
     inkscape:pageopacity="1"
     inkscape:pageshadow="2"
     inkscape:zoom="2.8284271"
     inkscape:cx="35.640683"
     inkscape:cy="72.445335"
     inkscape:document-units="px"
     inkscape:current-layer="layer1"
     showgrid="false"
     fit-margin-top="0"
     fit-margin-left="0"
     fit-margin-right="0"
     fit-margin-bottom="0"
     inkscape:window-width="1600"
     inkscape:window-height="827"
     inkscape:window-x="0"
     inkscape:window-y="24"
     inkscape:window-maximized="1" />
  <metadata
     id="metadata7">
    <rdf:RDF>
      <cc:Work
         rdf:about="">
        <dc:format>image/svg+xml</dc:format>
        <dc:type
           rdf:resource="http://purl.org/dc/dcmitype/StillImage" />
        <dc:title></dc:title>
      </cc:Work>
    </rdf:RDF>
  </metadata>
  <g
     inkscape:label="Calque 1"
     inkscape:groupmode="layer"
     id="layer1"
     transform="translate(-348.5,-84.90625)">
    <g
       id="g3151"
       style="fill:#ffffff"
       transform="matrix(0.9636481,0,0,0.9636481,22.78748,3.3575295)">
      <path
         style="fill:#ffffff;fill-opacity:1"
         d="m 0,0 0,132.34375 12.9375,12.9375 12.96875,-12.9375 12.9375,12.9375 12.9375,-12.9375 12.96875,12.9375 12.9375,-12.9375 12.9375,12.9375 12.9375,-12.9375 0.0312,0 12.9375,12.9375 12.9375,-12.9375 L 129.46875,0 0,0 z m 50.5625,21.90625 c 4.841328,0 8.78125,3.939922 8.78125,8.78125 0,4.841328 -3.939922,8.75 -8.78125,8.75 -4.841328,0 -8.75,-3.908672 -8.75,-8.75 0,-4.841328 3.908672,-8.78125 8.75,-8.78125 z m 28.5,0 c 4.841328,0 8.75,3.939922 8.75,8.78125 0,4.841328 -3.908672,8.75 -8.75,8.75 -4.841328,0 -8.78125,-3.908672 -8.78125,-8.75 0,-4.841328 3.939922,-8.78125 8.78125,-8.78125 z m -56.03125,4.375 c 0.84125,0 1.671,0.32675 2.3125,0.96875 0.274,0.273 0.78125,0.78125 0.78125,0.78125 l 13.59375,13.59375 2.09375,0 17.53125,0 10.78125,0 17.53125,0 2.09375,0 13.59375,-13.59375 c 0,0 0.50825,-0.50725 0.78125,-0.78125 1.282,-1.284 3.37225,-1.284 4.65625,0 1.284,1.282 1.286,3.37425 0,4.65625 L 108,32.6875 94.0625,46.625 c 0,0 -0.50825,0.50725 -0.78125,0.78125 -0.317,0.318 -0.70275,0.55775 -1.09375,0.71875 l 0,0.09375 0,32.84375 -0.125,0 -2.0625,0 0,26.3125 -0.15625,0 -8.59375,0 -0.15625,0 0,-26.3125 -4.21875,0 0,26.3125 -0.15625,0 -8.625,0 -0.15625,0 0,-26.3125 -2.03125,0 -0.15625,0 0,-32.84375 -1.46875,0 -0.5625,0 0,32.84375 -2.1875,0 0,26.3125 -8.78125,0 0,-26.3125 -4.375,0 0,26.3125 -8.75,0 0,-26.3125 -2.21875,0 0,-32.84375 0,-0.0625 c -0.448,-0.159 -0.86075,-0.392 -1.21875,-0.75 L 35.40625,46.625 21.46875,32.6875 c 0,0 -0.50825,-0.50725 -0.78125,-0.78125 -1.282,-1.282 -1.282,-3.37425 0,-4.65625 0.6415,-0.642 1.5025,-0.96875 2.34375,-0.96875 z"
         transform="translate(348.5,84.625)"
         id="rect3110"
         inkscape:connector-curvature="0" />
      <g
         id="g3131"
         style="fill:#ffffff" />
    </g>
    <g
       id="g3105"
       transform="translate(363.23425,99.26512)"
       style="fill:#ffffff" />
  </g>
</svg>
